<svg width="160" height="38" viewBox="0 0 160 38" fill="none" xmlns="http://www.w3.org/2000/svg">
<path d="M60.4321 25.8309C59.169 25.8762 57.5956 25.8988 55.7341 25.8988C54.892 25.8988 54.2271 25.7178 53.7618 25.3333C53.2964 24.9714 52.9861 24.2928 52.8089 23.3428C52.6316 22.3928 52.5429 21.0131 52.5429 19.2262C52.5429 17.4393 52.6316 16.0595 52.8089 15.1095C52.9861 14.1595 53.2964 13.4809 53.7618 13.119C54.2271 12.7571 54.8698 12.5536 55.7341 12.5536C56.9307 12.5536 57.9501 12.5535 58.8144 12.5762C59.6565 12.5988 60.4543 12.5988 61.2078 12.5988C61.9612 12.5988 62.759 12.6214 63.6454 12.644L64.2438 6.60474C63.4017 6.35593 62.5817 6.15236 61.7839 6.01664C60.9861 5.88093 60.1219 5.76784 59.169 5.69998C58.2161 5.63212 57.0637 5.58688 55.7119 5.58688C52.8532 5.58688 50.5706 6.01665 48.8643 6.89879C47.1357 7.78093 45.8947 9.20593 45.1413 11.1964C44.3878 13.1869 43.9889 15.8559 43.9889 19.2262C43.9889 22.5964 44.3657 25.2655 45.1413 27.2559C45.8947 29.2464 47.1357 30.6714 48.8643 31.5535C50.5928 32.4357 52.8753 32.8655 55.7119 32.8655C57.7285 32.8655 59.4349 32.775 60.7867 32.5714C62.1385 32.3905 63.4681 32.0512 64.7756 31.5988L64.1773 25.5595C62.9363 25.7178 61.6953 25.7857 60.4321 25.8309Z" fill="white"/>
<path d="M82.4155 13.4809C81.1967 13.0059 79.7119 12.7798 77.9391 12.7798C76.9861 12.7798 75.8559 12.825 74.5706 12.9155C73.2632 13.0059 71.9557 13.119 70.6482 13.2548C69.3407 13.3905 68.2105 13.5488 67.2576 13.7298L67.9668 18.819C69.5623 18.7512 71.0692 18.6833 72.4875 18.6607C73.9058 18.6381 75.1025 18.6155 76.0554 18.6155C76.8753 18.6155 77.4515 18.7738 77.7618 19.0679C78.072 19.3845 78.2493 19.8595 78.2715 20.5155V20.6738H72.421C70.5152 20.6738 69.0083 21.1036 67.9003 21.9857C66.7922 22.8679 66.2382 24.0667 66.2382 25.6048V27.5274C66.2382 28.7262 66.5263 29.7214 67.1246 30.5357C67.7008 31.35 68.4986 31.9381 69.4958 32.3452C70.4931 32.7524 71.5568 32.9559 72.7091 32.9559C74.0166 32.9559 75.1246 32.7298 76.0554 32.2774C76.9861 31.825 77.7839 31.2821 78.4266 30.6036C78.7147 30.3095 78.9584 30.0155 79.2022 29.7214L79.9113 32.3905H86.1607V20.5381C86.1607 18.5476 85.8504 16.9869 85.2077 15.8559C84.5651 14.7476 83.6343 13.9559 82.4155 13.4809ZM78.2715 26.6C77.9612 26.7809 77.651 26.9393 77.3407 27.0976C76.6981 27.3917 76.0776 27.5274 75.4571 27.5274C74.9252 27.5274 74.5485 27.4143 74.2825 27.1881C74.0166 26.9619 73.8836 26.6678 73.8836 26.3512V25.7405C73.8836 25.3786 73.9945 25.1071 74.2382 24.8809C74.482 24.6548 74.8366 24.5643 75.3019 24.5643H78.2715V26.6Z" fill="white"/>
<path d="M111.335 4.54642H108.011C106.482 4.54642 105.729 5.33808 105.729 6.92142V8.86666C105.729 10.45 106.482 11.2417 108.011 11.2417H111.335C112.864 11.2417 113.618 10.45 113.618 8.86666V6.92142C113.618 5.33808 112.864 4.54642 111.335 4.54642Z" fill="white"/>
<path d="M113.573 13.3H105.751V32.4131H113.573V13.3Z" fill="white"/>
<path d="M130.814 9.72618L134.67 8.14284L131.701 3.05356L122.992 8.7988L123.324 9.29641C123.989 10.0655 125.917 11.3321 130.814 9.72618Z" fill="white"/>
<path d="M132.942 13.7524C131.413 13.0964 129.374 12.7798 126.826 12.7798C124.277 12.7798 122.238 13.0964 120.709 13.7524C119.18 14.4083 118.05 15.4714 117.385 16.9417C116.698 18.4119 116.344 20.4024 116.344 22.9131C116.344 25.3559 116.676 27.3012 117.385 28.7714C118.072 30.219 119.18 31.2821 120.709 31.9381C122.238 32.594 124.277 32.9107 126.826 32.9107C129.374 32.9107 131.413 32.594 132.942 31.9381C134.471 31.2821 135.579 30.2417 136.266 28.7714C136.931 27.3238 137.285 25.3786 137.285 22.9131C137.285 20.425 136.953 18.4345 136.266 16.9417C135.579 15.4488 134.471 14.3857 132.942 13.7524ZM128.842 25.7857C128.731 26.4417 128.51 26.8714 128.177 27.0976C127.845 27.3238 127.38 27.4369 126.781 27.4369C126.183 27.4369 125.717 27.3238 125.385 27.0976C125.053 26.8714 124.831 26.419 124.72 25.7857C124.587 25.1298 124.543 24.1798 124.543 22.8905C124.543 21.5559 124.609 20.5607 124.72 19.9048C124.853 19.2488 125.075 18.7964 125.385 18.5476C125.717 18.2988 126.183 18.1857 126.781 18.1857C127.38 18.1857 127.845 18.2988 128.177 18.5476C128.51 18.7964 128.731 19.2488 128.842 19.9048C128.953 20.5607 129.019 21.5559 129.019 22.8905C129.019 24.1798 128.953 25.1298 128.842 25.7857Z" fill="white"/>
<path d="M154.46 12.7571C153.152 12.7571 151.823 13.0512 150.449 13.6393C149.163 14.1821 147.922 15.019 146.726 16.1048L146.017 13.2774H139.834V32.3905H147.701V19.95C148.277 19.769 148.765 19.656 149.186 19.6107C149.762 19.5429 150.294 19.4976 150.781 19.4976C151.291 19.4976 151.623 19.5881 151.823 19.7464C152.022 19.9048 152.133 20.2214 152.133 20.6512V32.3905H160V18.0952C160 14.544 158.161 12.7571 154.46 12.7571Z" fill="white"/>
<path d="M96.2216 13.3L99.036 12.644V8.30118H91.1247V13.3452L87.9778 13.5036V18.1405H91.1468L91.169 27.6178C91.169 29.2917 91.7008 30.6036 92.7867 31.5536C93.8504 32.5036 95.313 32.9786 97.1302 32.9786C97.7285 32.9786 98.4155 32.9333 99.2133 32.8655C100.011 32.7976 100.787 32.6845 101.562 32.5488C102.338 32.4131 102.981 32.2321 103.512 31.9833L102.648 26.8488H100.654C100.078 26.8488 99.6565 26.7357 99.4127 26.5321C99.169 26.3059 99.036 25.9667 99.036 25.469V18.1178H103.579V13.3H99.036H96.2216Z" fill="white"/>
<path d="M8.28809 38H28.9418C33.5291 38 37.2299 34.2226 37.2299 29.5405V8.45952C37.2299 3.77738 33.5291 0 28.9418 0H8.28809C3.70083 0 0 3.77738 0 8.45952V29.5405C0 34.2 3.70083 38 8.28809 38Z" fill="#BA0000"/>
<path d="M12.277 20.0857L10.5706 19.0226C9.95015 18.6381 9.17453 18.6155 8.53187 18.9774L6.62605 20.0405C5.98339 20.4024 5.5845 21.081 5.56234 21.8274L5.51802 24.0441C5.49586 24.7905 5.87259 25.4917 6.49309 25.8762L8.35458 27.0298C8.97508 27.4143 9.7507 27.4369 10.3934 27.075L12.2992 26.0119C12.9418 25.65 13.3407 24.9714 13.3629 24.225L13.3851 23.0262C12.6759 22.3024 12.277 21.3298 12.277 20.2893V20.0857Z" fill="white"/>
<path d="M22.6925 13.4583L23.0914 13.7071C23.7119 14.0917 24.4875 14.1143 25.1302 13.7524L27.036 12.6893C27.6787 12.3274 28.0776 11.6488 28.0997 10.9024L28.1441 8.6857C28.1662 7.93927 27.7895 7.23809 27.169 6.85356L25.3075 5.69999C24.687 5.31546 23.9114 5.29285 23.2687 5.65475L21.3629 6.71785C20.7202 7.07975 20.3213 7.75832 20.2992 8.50475L20.2549 10.7214C20.2327 11.4678 20.6094 12.169 21.2299 12.5536L21.4294 12.6667L21.3629 12.7798L20.831 13.7071L19.9003 13.1643C19.0139 12.644 17.928 12.644 17.0637 13.1643L14.4488 14.7024C13.5623 15.2226 13.0305 16.1726 13.0305 17.2131V20.2893C13.0305 20.4702 13.0526 20.6738 13.0748 20.8548C13.1413 21.1488 13.2299 21.4202 13.3629 21.6917C13.6067 22.144 13.9834 22.5512 14.4266 22.8226L17.0416 24.3607C17.928 24.8809 19.0139 24.8809 19.8781 24.3607L20.6538 23.9083L21.1856 24.8357L21.1634 24.8583C20.5208 25.2202 20.1441 25.9214 20.1441 26.6679V28.8845C20.1441 29.6309 20.543 30.3095 21.1634 30.694L23.0471 31.8024C23.6898 32.1643 24.4654 32.1643 25.0859 31.8024L26.9695 30.694C27.6122 30.3321 27.9889 29.6309 27.9889 28.8845V26.6679C27.9889 25.9214 27.59 25.2429 26.9695 24.8583L25.0859 23.75C24.4432 23.3881 23.6676 23.3881 23.0471 23.75L22.4709 24.0893L21.9391 23.1619L22.4931 22.8452C23.3795 22.325 23.9114 21.375 23.9114 20.3345V17.2583C23.9114 16.2178 23.3795 15.2678 22.4931 14.7476L22.0942 14.5214L22.6261 13.594L22.6925 13.4583Z" fill="white"/>
</svg>
